REM DIRINDEX 1\2,1\3
REM DIRNAME cjc133,folder01,folder02
TITLE ""
FILE "DISC2Track04.mp3" MP3
  TRACK 01 AUDIO
    TITLE "0:"
    INDEX 01 00:00:00
  TRACK 02 AUDIO
    TITLE "3:cjc133_1843"
    INDEX 01 00:00:11
  TRACK 03 AUDIO
    TITLE "0:"
    INDEX 01 00:01:50
  TRACK 04 AUDIO
    TITLE "2:cjc133_1844"
    INDEX 01 00:02:22
  TRACK 05 AUDIO
    TITLE "2:cjc133_1845"
    INDEX 01 00:06:04
  TRACK 06 AUDIO
    TITLE "2:cjc133_1846"
    INDEX 01 00:09:26
  TRACK 07 AUDIO
    TITLE "0:"
    INDEX 01 00:11:62
  TRACK 08 AUDIO
    TITLE "2:cjc133_1847"
    INDEX 01 00:12:38
  TRACK 09 AUDIO
    TITLE "2:cjc133_1848"
    INDEX 01 00:13:30
  TRACK 10 AUDIO
    TITLE "2:cjc133_1849"
    INDEX 01 00:16:28
  TRACK 11 AUDIO
    TITLE "0:"
    INDEX 01 00:18:33
  TRACK 12 AUDIO
    TITLE "2:cjc133_1850"
    INDEX 01 00:19:07
  TRACK 13 AUDIO
    TITLE "2:cjc133_1851"
    INDEX 01 00:20:12
  TRACK 14 AUDIO
    TITLE "2:cjc133_1852"
    INDEX 01 00:23:28
  TRACK 15 AUDIO
    TITLE "0:"
    INDEX 01 00:25:46
  TRACK 16 AUDIO
    TITLE "2:cjc133_1853"
    INDEX 01 00:26:24
  TRACK 17 AUDIO
    TITLE "2:cjc133_1854"
    INDEX 01 00:27:49
  TRACK 18 AUDIO
    TITLE "2:cjc133_1855"
    INDEX 01 00:30:69
  TRACK 19 AUDIO
    TITLE "0:"
    INDEX 01 00:33:22
  TRACK 20 AUDIO
    TITLE "2:cjc133_1856"
    INDEX 01 00:33:73
  TRACK 21 AUDIO
    TITLE "2:cjc133_1857"
    INDEX 01 00:37:12
  TRACK 22 AUDIO
    TITLE "2:cjc133_1858"
    INDEX 01 00:40:21
  TRACK 23 AUDIO
    TITLE "0:"
    INDEX 01 00:42:37
  TRACK 24 AUDIO
    TITLE "2:cjc133_1859"
    INDEX 01 00:43:11
  TRACK 25 AUDIO
    TITLE "2:cjc133_1860"
    INDEX 01 00:44:30
  TRACK 26 AUDIO
    TITLE "2:cjc133_1861"
    INDEX 01 00:47:58
  TRACK 27 AUDIO
    TITLE "0:"
    INDEX 01 00:50:17
  TRACK 28 AUDIO
    TITLE "2:cjc133_1862"
    INDEX 01 00:50:68
  TRACK 29 AUDIO
    TITLE "2:cjc133_1863"
    INDEX 01 00:52:26
  TRACK 30 AUDIO
    TITLE "2:cjc133_1864"
    INDEX 01 00:55:51
  TRACK 31 AUDIO
    TITLE "0:"
    INDEX 01 00:58:07
  TRACK 32 AUDIO
    TITLE "2:cjc133_1865"
    INDEX 01 00:58:58
  TRACK 33 AUDIO
    TITLE "2:cjc133_1866"
    INDEX 01 01:02:14
  TRACK 34 AUDIO
    TITLE "2:cjc133_1867"
    INDEX 01 01:06:02
  TRACK 35 AUDIO
    TITLE "0:"
    INDEX 01 01:08:72
  TRACK 36 AUDIO
    TITLE "2:cjc133_1868"
    INDEX 01 01:09:48
  TRACK 37 AUDIO
    TITLE "2:cjc133_1869"
    INDEX 01 01:12:56
  TRACK 38 AUDIO
    TITLE "2:cjc133_1870"
    INDEX 01 01:16:69
  TRACK 39 AUDIO
    TITLE "0:"
    INDEX 01 01:20:18
  TRACK 40 AUDIO
    TITLE "2:cjc133_1871"
    INDEX 01 01:20:63
  TRACK 41 AUDIO
    TITLE "2:cjc133_1872"
    INDEX 01 01:23:40
  TRACK 42 AUDIO
    TITLE "2:cjc133_1873"
    INDEX 01 01:26:32
  TRACK 43 AUDIO
    TITLE "0:"
    INDEX 01 01:28:41
  TRACK 44 AUDIO
    TITLE "2:cjc133_1874"
    INDEX 01 01:29:13
  TRACK 45 AUDIO
    TITLE "2:cjc133_1875"
    INDEX 01 01:30:69
  TRACK 46 AUDIO
    TITLE "2:cjc133_1876"
    INDEX 01 01:34:54
  TRACK 47 AUDIO
    TITLE "0:"
    INDEX 01 01:37:46
  TRACK 48 AUDIO
    TITLE "2:cjc133_1877"
    INDEX 01 01:38:20
  TRACK 49 AUDIO
    TITLE "2:cjc133_1878"
    INDEX 01 01:39:43
  TRACK 50 AUDIO
    TITLE "2:cjc133_1879"
    INDEX 01 01:43:21
  TRACK 51 AUDIO
    TITLE "0:"
    INDEX 01 01:46:10
  TRACK 52 AUDIO
    TITLE "2:cjc133_1880"
    INDEX 01 01:46:63
  TRACK 53 AUDIO
    TITLE "2:cjc133_1881"
    INDEX 01 01:49:22
  TRACK 54 AUDIO
    TITLE "2:cjc133_1882"
    INDEX 01 01:54:23
  TRACK 55 AUDIO
    TITLE "0:"
    INDEX 01 01:58:36
  TRACK 56 AUDIO
    TITLE "2:cjc133_1883"
    INDEX 01 01:59:06
  TRACK 57 AUDIO
    TITLE "2:cjc133_1884"
    INDEX 01 02:01:29
  TRACK 58 AUDIO
    TITLE "2:cjc133_1885"
    INDEX 01 02:06:32
  TRACK 59 AUDIO
    TITLE "0:"
    INDEX 01 02:10:47
  TRACK 60 AUDIO
    TITLE "2:cjc133_1886"
    INDEX 01 02:11:27
  TRACK 61 AUDIO
    TITLE "2:cjc133_1887"
    INDEX 01 02:12:52
  TRACK 62 AUDIO
    TITLE "2:cjc133_1888"
    INDEX 01 02:17:59
  TRACK 63 AUDIO
    TITLE "0:"
    INDEX 01 02:22:04
